REM DIRINDEX 1\2\4\8,1\2\4\9,1\2\4\10,1\2\5\11,1\2\5\12,1\2\5\13,1\2\5\14,1\2\5\15,1\3\6\16,1\3\6\17,1\3\6\18,1\3\7\19,1\3\7\20,1\3\7\21,1\3\7\22,1\3\7\23
REM DIRNAME "folder01","folder02","folder03","folder04","folder05","folder06","folder07","folder08","folder09","folder10","folder11","folder12","folder13","folder14","folder15","folder16","folder17","folder18","folder19","folder20","folder21","folder22","folder23"
TITLE ""
FILE "LR_black_phrase_E_C08.mp3" MP3
  TRACK 01 AUDIO
    TITLE "0:"
    INDEX 01 00:00:00
  TRACK 02 AUDIO
    TITLE "16:cjc171_10221"
    INDEX 01 00:00:14
  TRACK 03 AUDIO
    TITLE "0:"
    INDEX 01 00:01:37
  TRACK 04 AUDIO
    TITLE "17:cjc171_10222"
    INDEX 01 00:01:65
  TRACK 05 AUDIO
    TITLE "0:"
    INDEX 01 00:04:10
  TRACK 06 AUDIO
    TITLE "18:cjc171_10223"
    INDEX 01 00:04:65
  TRACK 07 AUDIO
    TITLE "0:"
    INDEX 01 00:07:08
  TRACK 08 AUDIO
    TITLE "16:cjc171_10224"
    INDEX 01 00:08:16
  TRACK 09 AUDIO
    TITLE "0:"
    INDEX 01 00:09:29
  TRACK 10 AUDIO
    TITLE "17:cjc171_10225"
    INDEX 01 00:09:62
  TRACK 11 AUDIO
    TITLE "0:"
    INDEX 01 00:11:67
  TRACK 12 AUDIO
    TITLE "18:cjc171_10226"
    INDEX 01 00:12:49
  TRACK 13 AUDIO
    TITLE "0:"
    INDEX 01 00:14:55
  TRACK 14 AUDIO
    TITLE "16:cjc171_10227"
    INDEX 01 00:15:55
  TRACK 15 AUDIO
    TITLE "0:"
    INDEX 01 00:17:05
  TRACK 16 AUDIO
    TITLE "17:cjc171_10228"
    INDEX 01 00:17:24
  TRACK 17 AUDIO
    TITLE "0:"
    INDEX 01 00:19:39
  TRACK 18 AUDIO
    TITLE "18:cjc171_10229"
    INDEX 01 00:20:13
  TRACK 19 AUDIO
    TITLE "0:"
    INDEX 01 00:22:26
  TRACK 20 AUDIO
    TITLE "16:cjc171_10230"
    INDEX 01 00:23:19
  TRACK 21 AUDIO
    TITLE "0:"
    INDEX 01 00:24:44
  TRACK 22 AUDIO
    TITLE "17:cjc171_10231"
    INDEX 01 00:24:64
  TRACK 23 AUDIO
    TITLE "0:"
    INDEX 01 00:26:53
  TRACK 24 AUDIO
    TITLE "18:cjc171_10232"
    INDEX 01 00:27:25
  TRACK 25 AUDIO
    TITLE "0:"
    INDEX 01 00:29:14
  TRACK 26 AUDIO
    TITLE "16:cjc171_10233"
    INDEX 01 00:30:15
  TRACK 27 AUDIO
    TITLE "0:"
    INDEX 01 00:31:32
  TRACK 28 AUDIO
    TITLE "17:cjc171_10234"
    INDEX 01 00:31:64
  TRACK 29 AUDIO
    TITLE "0:"
    INDEX 01 00:34:39
  TRACK 30 AUDIO
    TITLE "18:cjc171_10235"
    INDEX 01 00:35:18
  TRACK 31 AUDIO
    TITLE "0:"
    INDEX 01 00:37:68
  TRACK 32 AUDIO
    TITLE "16:cjc171_10236"
    INDEX 01 00:38:72
  TRACK 33 AUDIO
    TITLE "0:"
    INDEX 01 00:40:22
  TRACK 34 AUDIO
    TITLE "17:cjc171_10237"
    INDEX 01 00:40:49
  TRACK 35 AUDIO
    TITLE "0:"
    INDEX 01 00:42:60
  TRACK 36 AUDIO
    TITLE "18:cjc171_10238"
    INDEX 01 00:43:40
  TRACK 37 AUDIO
    TITLE "0:"
    INDEX 01 00:45:46
  TRACK 38 AUDIO
    TITLE "16:cjc171_10239"
    INDEX 01 00:46:44
  TRACK 39 AUDIO
    TITLE "0:"
    INDEX 01 00:48:01
  TRACK 40 AUDIO
    TITLE "17:cjc171_10240"
    INDEX 01 00:48:21
  TRACK 41 AUDIO
    TITLE "0:"
    INDEX 01 00:50:71
  TRACK 42 AUDIO
    TITLE "18:cjc171_10241"
    INDEX 01 00:51:39
  TRACK 43 AUDIO
    TITLE "0:"
    INDEX 01 00:54:14
  TRACK 44 AUDIO
    TITLE "16:cjc171_10242"
    INDEX 01 00:55:07
  TRACK 45 AUDIO
    TITLE "0:"
    INDEX 01 00:56:30
  TRACK 46 AUDIO
    TITLE "17:cjc171_10243"
    INDEX 01 00:56:56
  TRACK 47 AUDIO
    TITLE "0:"
    INDEX 01 00:59:54
  TRACK 48 AUDIO
    TITLE "18:cjc171_10244"
    INDEX 01 01:00:28
  TRACK 49 AUDIO
    TITLE "0:"
    INDEX 01 01:03:27
  TRACK 50 AUDIO
    TITLE "16:cjc171_10245"
    INDEX 01 01:04:28
  TRACK 51 AUDIO
    TITLE "0:"
    INDEX 01 01:05:39
  TRACK 52 AUDIO
    TITLE "17:cjc171_10246"
    INDEX 01 01:05:67
  TRACK 53 AUDIO
    TITLE "0:"
    INDEX 01 01:07:48
  TRACK 54 AUDIO
    TITLE "18:cjc171_10247"
    INDEX 01 01:08:28
  TRACK 55 AUDIO
    TITLE "0:"
    INDEX 01 01:10:07
  TRACK 56 AUDIO
    TITLE "16:cjc171_10248"
    INDEX 01 01:11:12
  TRACK 57 AUDIO
    TITLE "0:"
    INDEX 01 01:12:49
  TRACK 58 AUDIO
    TITLE "17:cjc171_10249"
    INDEX 01 01:13:05
  TRACK 59 AUDIO
    TITLE "0:"
    INDEX 01 01:15:02
  TRACK 60 AUDIO
    TITLE "18:cjc171_10250"
    INDEX 01 01:15:55
  TRACK 61 AUDIO
    TITLE "0:"
    INDEX 01 01:17:52
  TRACK 62 AUDIO
    TITLE "16:cjc171_10251"
    INDEX 01 01:18:50
  TRACK 63 AUDIO
    TITLE "0:"
    INDEX 01 01:19:67
  TRACK 64 AUDIO
    TITLE "17:cjc171_10252"
    INDEX 01 01:20:15
  TRACK 65 AUDIO
    TITLE "0:"
    INDEX 01 01:22:04
  TRACK 66 AUDIO
    TITLE "18:cjc171_10253"
    INDEX 01 01:22:49
  TRACK 67 AUDIO
    TITLE "0:"
    INDEX 01 01:24:40
  TRACK 68 AUDIO
    TITLE "16:cjc171_10254"
    INDEX 01 01:25:34
  TRACK 69 AUDIO
    TITLE "0:"
    INDEX 01 01:26:47
  TRACK 70 AUDIO
    TITLE "17:cjc171_10255"
    INDEX 01 01:26:67
  TRACK 71 AUDIO
    TITLE "0:"
    INDEX 01 01:29:61
  TRACK 72 AUDIO
    TITLE "18:cjc171_10256"
    INDEX 01 01:30:31
  TRACK 73 AUDIO
    TITLE "0:"
    INDEX 01 01:33:26
  TRACK 74 AUDIO
    TITLE "16:cjc171_10257"
    INDEX 01 01:34:27
  TRACK 75 AUDIO
    TITLE "0:"
    INDEX 01 01:35:27
  TRACK 76 AUDIO
    TITLE "17:cjc171_10258"
    INDEX 01 01:35:56
  TRACK 77 AUDIO
    TITLE "0:"
    INDEX 01 01:37:43
  TRACK 78 AUDIO
    TITLE "18:cjc171_10259"
    INDEX 01 01:38:25
  TRACK 79 AUDIO
    TITLE "0:"
    INDEX 01 01:40:12
  TRACK 80 AUDIO
    TITLE "16:cjc171_10260"
    INDEX 01 01:41:17
  TRACK 81 AUDIO
    TITLE "0:"
    INDEX 01 01:42:38
  TRACK 82 AUDIO
    TITLE "17:cjc171_10261"
    INDEX 01 01:42:68
  TRACK 83 AUDIO
    TITLE "0:"
    INDEX 01 01:44:63
  TRACK 84 AUDIO
    TITLE "18:cjc171_10262"
    INDEX 01 01:45:43
  TRACK 85 AUDIO
    TITLE "0:"
    INDEX 01 01:47:39
  TRACK 86 AUDIO
    TITLE "16:cjc171_10263"
    INDEX 01 01:48:37
  TRACK 87 AUDIO
    TITLE "0:"
    INDEX 01 01:49:52
  TRACK 88 AUDIO
    TITLE "17:cjc171_10264"
    INDEX 01 01:49:72
  TRACK 89 AUDIO
    TITLE "0:"
    INDEX 01 01:52:09
  TRACK 90 AUDIO
    TITLE "18:cjc171_10265"
    INDEX 01 01:52:60
  TRACK 91 AUDIO
    TITLE "0:"
    INDEX 01 01:54:73
  TRACK 92 AUDIO
    TITLE "16:cjc171_10266"
    INDEX 01 01:55:72
  TRACK 93 AUDIO
    TITLE "0:"
    INDEX 01 01:57:10
  TRACK 94 AUDIO
    TITLE "17:cjc171_10267"
    INDEX 01 01:57:32
  TRACK 95 AUDIO
    TITLE "0:"
    INDEX 01 01:59:39
  TRACK 96 AUDIO
    TITLE "18:cjc171_10268"
    INDEX 01 02:00:13
  TRACK 97 AUDIO
    TITLE "0:"
    INDEX 01 02:02:19
  TRACK 98 AUDIO
    TITLE "16:cjc171_10269"
    INDEX 01 02:03:23
  TRACK 99 AUDIO
    TITLE "0:"
    INDEX 01 02:04:26
  TRACK 100 AUDIO
    TITLE "17:cjc171_10270"
    INDEX 01 02:04:54
  TRACK 101 AUDIO
    TITLE "0:"
    INDEX 01 02:06:62
  TRACK 102 AUDIO
    TITLE "18:cjc171_10271"
    INDEX 01 02:07:40
  TRACK 103 AUDIO
    TITLE "0:"
    INDEX 01 02:09:47
  TRACK 104 AUDIO
    TITLE "16:cjc171_10272"
    INDEX 01 02:10:50
  TRACK 105 AUDIO
    TITLE "0:"
    INDEX 01 02:11:69
  TRACK 106 AUDIO
    TITLE "17:cjc171_10273"
    INDEX 01 02:12:22
  TRACK 107 AUDIO
    TITLE "0:"
    INDEX 01 02:14:13
  TRACK 108 AUDIO
    TITLE "18:cjc171_10274"
    INDEX 01 02:14:64
  TRACK 109 AUDIO
    TITLE "0:"
    INDEX 01 02:16:55
  TRACK 110 AUDIO
    TITLE "16:cjc171_10275"
    INDEX 01 02:17:52
  TRACK 111 AUDIO
    TITLE "0:"
    INDEX 01 02:18:62
  TRACK 112 AUDIO
    TITLE "17:cjc171_10276"
    INDEX 01 02:19:16
  TRACK 113 AUDIO
    TITLE "0:"
    INDEX 01 02:21:52
  TRACK 114 AUDIO
    TITLE "18:cjc171_10277"
    INDEX 01 02:22:24
  TRACK 115 AUDIO
    TITLE "0:"
    INDEX 01 02:24:60
  TRACK 116 AUDIO
    TITLE "16:cjc171_10278"
    INDEX 01 02:25:54
  TRACK 117 AUDIO
    TITLE "0:"
    INDEX 01 02:26:65
  TRACK 118 AUDIO
    TITLE "17:cjc171_10279"
    INDEX 01 02:27:10
  TRACK 119 AUDIO
    TITLE "0:"
    INDEX 01 02:28:64
  TRACK 120 AUDIO
    TITLE "18:cjc171_10280"
    INDEX 01 02:29:34
  TRACK 121 AUDIO
    TITLE "0:"
    INDEX 01 02:31:13
